<svg width="107" height="24" viewBox="0 0 107 24" fill="none" xmlns="http://www.w3.org/2000/svg">
<circle cx="12" cy="12" r="11.25" stroke="#212121" stroke-width="1.5"/>
<mask id="mask0_19_3324" style="mask-type:alpha" maskUnits="userSpaceOnUse" x="4" y="4" width="16" height="17">
<rect x="4.75" y="5.55" width="14.5" height="14.5" fill="#D9D9D9" stroke="#212121" stroke-width="1.5"/>
</mask>
<g mask="url(#mask0_19_3324)">
<mask id="path-3-inside-1_19_3324" fill="white">
<path d="M10 16.8L6 12.8L10 8.80005L10.9333 9.73338L8.53333 12.1334H16.6667V9.46672H18V13.4667H8.53333L10.9333 15.8667L10 16.8Z"/>
</mask>
<path d="M10 16.8L6 12.8L10 8.80005L10.9333 9.73338L8.53333 12.1334H16.6667V9.46672H18V13.4667H8.53333L10.9333 15.8667L10 16.8Z" fill="#FEFCFA"/>
<path d="M10 16.8L8.93934 17.8607L10 18.9214L11.0607 17.8607L10 16.8ZM6 12.8L4.93934 11.7394L3.87868 12.8L4.93934 13.8607L6 12.8ZM10 8.80005L11.0607 7.73939L10 6.67873L8.93934 7.73939L10 8.80005ZM10.9333 9.73338L11.994 10.794L13.0547 9.73338L11.994 8.67272L10.9333 9.73338ZM8.53333 12.1334L7.47267 11.0727L4.91201 13.6334H8.53333V12.1334ZM16.6667 12.1334V13.6334H18.1667V12.1334H16.6667ZM16.6667 9.46672V7.96672H15.1667V9.46672H16.6667ZM18 9.46672H19.5V7.96672H18V9.46672ZM18 13.4667V14.9667H19.5V13.4667H18ZM8.53333 13.4667V11.9667H4.91201L7.47267 14.5274L8.53333 13.4667ZM10.9333 15.8667L11.994 16.9274L13.0547 15.8667L11.994 14.8061L10.9333 15.8667ZM10 16.8L11.0607 15.7394L7.06066 11.7394L6 12.8L4.93934 13.8607L8.93934 17.8607L10 16.8ZM6 12.8L7.06066 13.8607L11.0607 9.86071L10 8.80005L8.93934 7.73939L4.93934 11.7394L6 12.8ZM10 8.80005L8.93934 9.86071L9.87267 10.794L10.9333 9.73338L11.994 8.67272L11.0607 7.73939L10 8.80005ZM10.9333 9.73338L9.87267 8.67272L7.47267 11.0727L8.53333 12.1334L9.59399 13.194L11.994 10.794L10.9333 9.73338ZM8.53333 12.1334V13.6334H16.6667V12.1334V10.6334H8.53333V12.1334ZM16.6667 12.1334H18.1667V9.46672H16.6667H15.1667V12.1334H16.6667ZM16.6667 9.46672V10.9667H18V9.46672V7.96672H16.6667V9.46672ZM18 9.46672H16.5V13.4667H18H19.5V9.46672H18ZM18 13.4667V11.9667H8.53333V13.4667V14.9667H18V13.4667ZM8.53333 13.4667L7.47267 14.5274L9.87267 16.9274L10.9333 15.8667L11.994 14.8061L9.59399 12.4061L8.53333 13.4667ZM10.9333 15.8667L9.87267 14.8061L8.93934 15.7394L10 16.8L11.0607 17.8607L11.994 16.9274L10.9333 15.8667Z" fill="#212121" mask="url(#path-3-inside-1_19_3324)"/>
</g>
<path d="M39.792 11.56C39.6853 11.2613 39.5253 10.968 39.312 10.68C39.1093 10.3813 38.8533 10.1147 38.544 9.88C38.2453 9.64533 37.904 9.45867 37.52 9.32C37.1467 9.17067 36.7307 9.096 36.272 9.096C35.4933 9.096 34.7947 9.27733 34.176 9.64C33.5573 10.0027 33.072 10.5093 32.72 11.16C32.368 11.8107 32.192 12.5787 32.192 13.464C32.192 14.3387 32.3627 15.1013 32.704 15.752C33.0453 16.4027 33.5253 16.9147 34.144 17.288C34.7733 17.6507 35.4933 17.832 36.304 17.832C36.8587 17.832 37.3547 17.72 37.792 17.496C38.24 17.2613 38.624 16.9627 38.944 16.6C39.2747 16.2267 39.5307 15.8213 39.712 15.384C39.904 14.9467 40.016 14.5307 40.048 14.136H35.856V12.92H41.712V19H40.352V15.464L40.528 15.416C40.496 15.6187 40.416 15.8747 40.288 16.184C40.1707 16.4933 40 16.8187 39.776 17.16C39.552 17.5013 39.2693 17.8213 38.928 18.12C38.5973 18.408 38.208 18.648 37.76 18.84C37.312 19.0213 36.8 19.112 36.224 19.112C35.456 19.112 34.736 18.9733 34.064 18.696C33.4027 18.4187 32.816 18.0293 32.304 17.528C31.8027 17.0267 31.408 16.4293 31.12 15.736C30.832 15.0427 30.688 14.2853 30.688 13.464C30.688 12.632 30.8267 11.8747 31.104 11.192C31.3813 10.4987 31.7707 9.90133 32.272 9.4C32.7733 8.888 33.3653 8.49867 34.048 8.232C34.7307 7.95467 35.4773 7.816 36.288 7.816C37.4507 7.816 38.4693 8.09867 39.344 8.664C40.2187 9.22933 40.8533 10.0187 41.248 11.032L39.792 11.56ZM48.6306 7.928L52.6626 19H51.1106L47.4306 8.728H48.1346L44.4546 19H42.9186L46.9506 7.928H48.6306ZM44.8866 15.336H50.5986L50.9826 16.536H44.5186L44.8866 15.336ZM57.9815 7.928H65.5335V9.128H62.5095V19H61.0375V9.128H57.9815V7.928ZM73.3414 9.128H68.8134V12.808H72.8614V14.008H68.8134V17.8H73.3414V19H67.3574V7.928H73.3414V9.128ZM75.5605 19V7.928H79.1445C80.0192 7.928 80.7392 8.072 81.3045 8.36C81.8805 8.648 82.3072 9.03733 82.5845 9.528C82.8725 10.008 83.0165 10.5573 83.0165 11.176C83.0165 11.9333 82.7818 12.568 82.3125 13.08C81.8432 13.592 81.2352 13.928 80.4885 14.088C81.0645 14.28 81.5765 14.5947 82.0245 15.032C82.4832 15.4587 82.8618 16.0027 83.1605 16.664C83.4698 17.3253 83.6725 18.104 83.7685 19H82.2005C82.1258 18.0933 81.9125 17.3253 81.5605 16.696C81.2192 16.056 80.7392 15.56 80.1205 15.208C79.7152 14.984 79.2565 14.8187 78.7445 14.712C78.2325 14.6053 77.6565 14.552 77.0165 14.552V19H75.5605ZM77.0165 13.336H79.1605C79.9498 13.336 80.5365 13.1333 80.9205 12.728C81.3152 12.312 81.5125 11.8 81.5125 11.192C81.5125 10.5627 81.3205 10.0613 80.9365 9.688C80.5525 9.31467 79.9552 9.128 79.1445 9.128H77.0165V13.336ZM85.3879 7.928H86.8439V14.904C86.8439 15.928 87.0945 16.6693 87.5959 17.128C88.0972 17.5867 88.7585 17.816 89.5799 17.816C90.4119 17.816 91.0732 17.5867 91.5639 17.128C92.0652 16.6693 92.3159 15.928 92.3159 14.904V7.928H93.7879V14.888C93.7879 15.848 93.5959 16.6427 93.2119 17.272C92.8279 17.9013 92.3159 18.3653 91.6759 18.664C91.0359 18.9627 90.3319 19.112 89.5639 19.112C88.7959 19.112 88.0919 18.9627 87.4519 18.664C86.8225 18.3653 86.3212 17.9013 85.9479 17.272C85.5745 16.6427 85.3879 15.848 85.3879 14.888V7.928ZM104.761 11.56C104.654 11.2613 104.494 10.968 104.281 10.68C104.078 10.3813 103.822 10.1147 103.513 9.88C103.214 9.64533 102.873 9.45867 102.489 9.32C102.115 9.17067 101.699 9.096 101.241 9.096C100.462 9.096 99.7634 9.27733 99.1448 9.64C98.5261 10.0027 98.0408 10.5093 97.6888 11.16C97.3368 11.8107 97.1608 12.5787 97.1608 13.464C97.1608 14.3387 97.3314 15.1013 97.6728 15.752C98.0141 16.4027 98.4941 16.9147 99.1128 17.288C99.7421 17.6507 100.462 17.832 101.273 17.832C101.827 17.832 102.323 17.72 102.761 17.496C103.209 17.2613 103.593 16.9627 103.913 16.6C104.243 16.2267 104.499 15.8213 104.681 15.384C104.873 14.9467 104.985 14.5307 105.017 14.136H100.825V12.92H106.681V19H105.321V15.464L105.497 15.416C105.465 15.6187 105.385 15.8747 105.257 16.184C105.139 16.4933 104.969 16.8187 104.745 17.16C104.521 17.5013 104.238 17.8213 103.897 18.12C103.566 18.408 103.177 18.648 102.729 18.84C102.281 19.0213 101.769 19.112 101.193 19.112C100.425 19.112 99.7048 18.9733 99.0328 18.696C98.3714 18.4187 97.7848 18.0293 97.2728 17.528C96.7714 17.0267 96.3768 16.4293 96.0888 15.736C95.8008 15.0427 95.6568 14.2853 95.6568 13.464C95.6568 12.632 95.7954 11.8747 96.0728 11.192C96.3501 10.4987 96.7394 9.90133 97.2408 9.4C97.7421 8.888 98.3341 8.49867 99.0168 8.232C99.6994 7.95467 100.446 7.816 101.257 7.816C102.419 7.816 103.438 8.09867 104.313 8.664C105.187 9.22933 105.822 10.0187 106.217 11.032L104.761 11.56Z" fill="#212121"/>
</svg>
