<svg width="70" height="70" viewBox="0 0 70 70" fill="none" xmlns="http://www.w3.org/2000/svg">
<path d="M70 69.9999H57.8766V33.2479L37.9125 48.5415H32.0875L12.1234 33.2479V69.9999H0V17.1725H12.066L35 35.8951L57.7977 17.1725H70V69.9999Z" fill="#212121"/>
<path d="M50.6239 70H48.4432V27.2529L34.8779 19.3554L21.3126 27.2529V70H19.1318V25.9477L34.8779 16.7819L50.6239 25.9477V70Z" fill="#EFB642"/>
<path d="M33.7369 18.3084C33.3567 16.5165 30.932 15.8234 28.7871 15.2187C27.998 14.9901 27.2448 14.7836 26.6135 14.5182C24.0239 13.4416 21.0899 12.2249 19.4184 9.25313C18.3065 7.2769 18.3065 4.71075 19.4184 2.72714C20.4371 0.913141 22.1802 -0.0897231 24.1888 0.0135129C29.5906 0.293725 32.2018 7.34326 33.0626 9.66607C33.6939 11.3695 34.2893 13.1097 34.8273 14.8352C34.9134 15.1228 35.0569 15.4325 35.2003 15.757C35.5016 16.4502 35.8459 17.2318 35.8962 17.9913L33.7441 18.3158L33.7369 18.3084ZM23.9019 2.24046C22.417 2.24046 21.635 3.24332 21.2979 3.83324C20.5805 5.11632 20.5734 6.84183 21.2979 8.11753C22.5963 10.4256 25.0497 11.4432 27.4241 12.4313C27.9478 12.6452 28.6365 12.8443 29.361 13.0507C30.2649 13.3088 31.2907 13.5964 32.2663 14.0167C31.8718 12.8221 31.4557 11.6276 31.0181 10.4477C29.0525 5.13844 26.714 2.37319 24.0741 2.24046H23.9019Z" fill="#EFB642"/>
<path d="M36.2629 18.3086L34.1108 17.9841C34.1682 17.2246 34.5054 16.443 34.8067 15.7498C34.9502 15.4254 35.0865 15.1083 35.1797 14.8281C35.7177 13.1026 36.3131 11.3623 36.9444 9.6589C37.8052 7.34346 40.4164 0.28655 45.8182 0.00633854C47.8268 -0.0895234 49.5771 0.905966 50.5886 2.71997C51.7077 4.71095 51.7005 7.26972 50.5886 9.24596C48.9171 12.2177 45.9831 13.4418 43.3935 14.511C42.7622 14.7765 42.009 14.9903 41.2199 15.2115C39.075 15.8162 36.6431 16.5093 36.2629 18.3012V18.3086ZM46.0979 2.24066H45.9258C43.2859 2.38076 40.9473 5.13864 38.9817 10.4553C38.5441 11.6351 38.1281 12.8297 37.7335 14.0243C38.7019 13.604 39.7349 13.309 40.6316 13.0509C41.3633 12.8445 42.052 12.6454 42.5757 12.4315C44.9501 11.4508 47.3963 10.4258 48.7019 8.11774C49.4265 6.84203 49.4193 5.11652 48.7019 3.83345C48.372 3.23615 47.5829 2.23328 46.0979 2.23328V2.24066Z" fill="#EFB642"/>
</svg>
