<svg width="68" height="68" viewBox="0 0 68 68" fill="none" xmlns="http://www.w3.org/2000/svg">
<ellipse cx="33.8121" cy="33.8119" rx="31.7106" ry="31.7106" fill="white"/>
<path d="M33.8125 1.05056C51.9059 1.05075 66.5732 15.7188 66.5732 33.8123C66.5731 51.9055 51.9058 66.5728 33.8125 66.573C15.7191 66.573 1.05097 51.9057 1.05078 33.8123C1.05078 15.7187 15.719 1.05056 33.8125 1.05056Z" stroke="#C9C9C9" stroke-opacity="0.3" stroke-width="2.10134"/>
<path d="M44.3828 15.0204C45.5131 15.0205 46.4815 15.4238 47.2871 16.2294C48.0924 17.0349 48.4945 18.002 48.4932 19.1308V52.0165L34.1064 45.8505L19.7188 52.0165V19.1308C19.7188 18.0005 20.1221 17.0336 20.9277 16.2294C21.7334 15.4252 22.7002 15.0218 23.8291 15.0204H44.3828Z" fill="#212121"/>
<path d="M38.8032 29.9952L29.4075 29.9952" stroke="white" stroke-width="4.20267" stroke-linecap="square"/>
</svg>
